<?xml version="1.0" standalone="no"?>
<!DOCTYPE svg PUBLIC "-//W3C//DTD SVG 20010904//EN"
 "http://www.w3.org/TR/2001/REC-SVG-20010904/DTD/svg10.dtd">
<svg version="1.0" xmlns="http://www.w3.org/2000/svg"
 width="512.000000pt" height="512.000000pt" viewBox="0 0 512.000000 512.000000"
 preserveAspectRatio="xMidYMid meet">
<metadata>
Created by potrace 1.16, written by Peter Selinger 2001-2019
</metadata>
<g transform="translate(0.000000,512.000000) scale(0.100000,-0.100000)"
fill="#000000" stroke="none">
<path d="M2400 4684 c-14 -2 -59 -9 -100 -15 -41 -6 -104 -19 -140 -29 -70
-19 -236 -84 -254 -100 -7 -5 -56 -32 -111 -60 -55 -28 -107 -58 -116 -66 -8
-8 -18 -14 -22 -14 -9 0 -157 -91 -157 -96 0 -3 19 7 43 21 85 53 325 165 428
200 235 78 439 109 664 102 83 -3 161 -6 175 -6 82 -2 400 -75 400 -92 0 -5 7
-6 15 -3 8 4 15 1 15 -6 0 -6 5 -8 11 -4 6 3 15 1 19 -5 4 -7 17 -13 28 -14
12 -1 22 -4 22 -8 0 -3 29 -18 65 -34 41 -17 62 -31 58 -39 -4 -6 1 -5 10 3
12 9 17 10 17 2 0 -7 4 -10 9 -6 5 3 16 -2 25 -10 8 -9 19 -16 23 -17 18 -2
53 -22 53 -30 0 -4 7 -8 15 -8 8 0 15 -5 15 -12 0 -6 3 -9 6 -5 3 3 25 -6 48
-20 141 -89 366 -293 483 -438 171 -213 314 -514 403 -849 43 -161 52 -229 60
-441 l8 -190 -4 210 c-3 203 -8 252 -58 520 -1 6 -4 15 -7 20 -4 6 -10 28 -14
50 -9 45 -12 54 -14 58 -2 1 -4 13 -6 27 -7 41 -183 385 -245 479 -210 316
-552 609 -901 770 -106 49 -312 116 -420 137 -80 15 -486 29 -549 18z"/>
<path d="M2557 4563 c-9 -8 -9 -56 -1 -105 6 -32 11 -38 30 -38 23 0 24 3 24
75 0 72 -1 75 -23 75 -13 0 -27 -3 -30 -7z"/>
<path d="M2735 4549 c39 -5 98 -13 133 -17 34 -5 59 -5 55 -1 -11 9 -165 29
-217 28 -31 -1 -24 -4 29 -10z"/>
<path d="M2965 4518 c28 -9 181 -50 235 -63 16 -4 12 0 -10 10 -39 18 -216 65
-240 64 -8 0 -1 -5 15 -11z"/>
<path d="M3230 4445 c0 -2 47 -27 105 -56 58 -28 105 -56 105 -62 0 -6 -11
-30 -26 -54 -23 -41 -25 -63 -4 -63 10 0 80 99 80 112 0 11 -82 57 -171 94
-84 35 -89 37 -89 29z"/>
<path d="M2614 4286 c-46 -40 -82 -96 -62 -96 14 0 128 110 128 123 0 17 -29
5 -66 -27z"/>
<path d="M1628 4299 c-24 -13 -23 -20 9 -74 31 -50 32 -51 58 -31 18 13 17 15
-14 65 -18 28 -34 51 -35 51 0 0 -9 -5 -18 -11z"/>
<path d="M2428 4268 c-34 -45 -61 -99 -53 -106 4 -4 15 3 26 16 18 23 18 22
21 -120 3 -127 5 -143 21 -146 16 -3 17 11 17 192 0 108 -2 196 -4 196 -2 0
-15 -15 -28 -32z"/>
<path d="M3610 4251 c0 -5 5 -13 10 -16 6 -3 10 -2 10 4 0 5 -4 13 -10 16 -5
3 -10 2 -10 -4z"/>
<path d="M2602 4194 c-69 -54 -95 -95 -73 -117 6 -6 15 1 27 18 18 28 120 115
134 115 5 0 12 -9 15 -20 9 -28 -21 -72 -104 -155 -47 -46 -71 -77 -71 -92 0
-22 3 -23 96 -23 l97 0 -6 -67 c-29 -312 -73 -1092 -64 -1117 4 -9 13 -16 20
-16 11 0 15 28 20 123 10 173 25 572 33 845 l6 232 29 0 c24 0 29 4 29 25 0
20 -5 25 -26 25 l-26 0 26 31 c41 48 19 56 -28 10 -38 -38 -46 -41 -96 -41
l-54 0 82 84 c66 67 82 90 82 113 0 36 -34 83 -59 83 -10 0 -50 -25 -89 -56z"/>
<path d="M3646 4227 c3 -10 9 -15 12 -12 3 3 0 11 -7 18 -10 9 -11 8 -5 -6z"/>
<path d="M3343 4169 c-32 -41 -42 -69 -24 -69 6 0 13 5 16 10 18 29 25 -4 27
-137 3 -140 4 -148 23 -148 19 0 20 7 20 190 0 215 -5 226 -62 154z"/>
<path d="M1796 4148 c-38 -44 -36 -69 3 -49 21 12 21 11 21 -129 0 -133 1
-140 20 -140 19 0 20 7 20 180 0 204 -3 210 -64 138z"/>
<path d="M1912 4008 c3 -165 5 -183 21 -186 16 -3 17 11 17 182 0 180 -1 186
-20 186 -20 0 -20 -5 -18 -182z"/>
<path d="M3720 4176 c0 -2 8 -10 18 -17 15 -13 16 -12 3 4 -13 16 -21 21 -21
13z"/>
<path d="M3292 3938 c2 -78 7 -113 16 -116 9 -3 12 24 12 112 0 98 -2 116 -15
116 -13 0 -15 -17 -13 -112z"/>
<path d="M4060 3846 c0 -2 8 -10 18 -17 15 -13 16 -12 3 4 -13 16 -21 21 -21
13z"/>
<path d="M2557 3793 c-4 -3 -7 -240 -7 -525 0 -285 -4 -518 -8 -518 -5 0 -171
129 -368 286 -197 158 -365 291 -372 297 -9 8 -19 5 -34 -11 -19 -18 -20 -23
-7 -38 8 -9 158 -137 334 -284 408 -340 386 -320 357 -315 -18 3 -21 1 -13
-13 4 -9 11 -31 14 -49 6 -29 3 -34 -37 -57 -47 -28 -76 -75 -76 -124 0 -22
-6 -32 -20 -37 -28 -9 -25 -24 13 -64 17 -20 22 -27 9 -17 -23 20 -36 19 -24
-1 4 -7 21 -14 38 -17 26 -5 36 1 73 38 24 25 49 42 56 40 7 -3 15 2 18 10 11
29 27 16 28 -21 0 -32 2 -35 10 -18 6 13 8 -64 4 -217 -5 -228 -4 -238 14
-238 21 0 26 38 36 260 3 69 8 148 11 177 l5 52 39 -4 c48 -4 72 -17 125 -66
l42 -38 34 35 34 35 -44 38 -44 37 25 20 c37 29 58 76 58 129 0 49 -10 77 -43
112 l-20 22 33 38 c19 21 122 135 231 253 108 118 249 276 314 350 64 74 145
164 179 199 159 168 -249 -218 -718 -679 -228 -224 -230 -225 -237 -195 -3 17
-12 188 -18 380 -6 193 -14 439 -18 548 -6 184 -9 208 -26 190z m276 -1121
c25 -27 40 -73 27 -86 -7 -7 -10 -6 -10 3 0 6 -11 29 -25 49 -14 20 -25 40
-25 44 0 14 16 9 33 -10z m-219 -77 c25 -26 -1 -75 -40 -75 -32 0 -51 38 -35
69 14 25 53 28 75 6z"/>
<path d="M2554 2579 c-10 -17 23 -46 37 -32 7 7 9 19 6 27 -7 18 -33 21 -43 5z"/>
<path d="M918 3603 c-4 -20 96 -98 113 -88 21 14 5 42 -41 73 -57 37 -67 39
-72 15z"/>
<path d="M4165 3589 c-43 -32 -51 -44 -37 -53 14 -8 102 51 102 69 0 23 -21
18 -65 -16z"/>
<path d="M3904 3486 c-35 -35 -45 -76 -20 -76 8 0 17 8 21 19 3 10 14 26 24
35 15 14 24 15 40 6 12 -6 21 -19 21 -30 0 -10 -41 -65 -91 -120 -54 -60 -89
-108 -87 -118 3 -14 18 -17 96 -20 l92 -3 0 25 c0 23 -3 25 -30 20 -16 -4 -45
-3 -65 0 l-36 7 81 86 c65 70 80 92 80 118 0 35 -19 58 -63 74 -26 10 -32 8
-63 -23z"/>
<path d="M1540 3469 c82 -73 195 -163 170 -135 -34 38 -196 176 -207 176 -4
-1 12 -19 37 -41z"/>
<path d="M4214 3464 c-40 -27 -51 -40 -47 -55 5 -19 7 -19 47 4 22 14 51 30
63 36 20 10 21 14 10 31 -6 11 -14 20 -17 19 -3 0 -28 -16 -56 -35z"/>
<path d="M867 3483 c-16 -15 -4 -32 40 -61 49 -32 63 -33 63 -2 0 11 -17 28
-44 44 -49 29 -50 29 -59 19z"/>
<path d="M1035 3450 c-8 -25 1 -40 24 -40 9 0 22 -5 28 -11 9 -9 18 -8 37 5
l26 16 0 -120 c0 -113 1 -120 20 -120 19 0 20 7 20 145 0 81 -4 145 -9 145 -5
0 -23 -8 -39 -17 -29 -16 -33 -16 -66 -1 -34 17 -35 16 -41 -2z"/>
<path d="M1340 3450 c0 -5 11 -17 25 -26 24 -15 24 -19 19 -93 -5 -64 -10 -80
-31 -98 -30 -28 -43 -29 -76 -3 -24 19 -26 27 -29 113 -4 122 -22 116 -26 -8
-3 -94 -2 -96 27 -125 42 -42 96 -42 137 1 27 28 29 37 32 119 5 104 -5 130
-48 130 -17 0 -30 -4 -30 -10z"/>
<path d="M4311 3430 c14 -31 19 -36 19 -24 0 6 -7 19 -16 30 -14 18 -14 18 -3
-6z"/>
<path d="M3838 3350 c-44 -48 -50 -70 -10 -45 35 23 82 66 82 77 0 21 -37 4
-72 -32z"/>
<path d="M4360 3325 c0 -5 5 -17 10 -25 5 -8 10 -10 10 -5 0 6 -5 17 -10 25
-5 8 -10 11 -10 5z"/>
<path d="M351 2964 c0 -11 3 -14 6 -6 3 7 2 16 -1 19 -3 4 -6 -2 -5 -13z"/>
<path d="M330 2863 c-6 -32 -15 -71 -20 -88 -24 -85 -33 -187 -34 -365 0 -162
4 -215 23 -314 12 -65 24 -128 25 -140 1 -12 5 -28 9 -36 3 -8 12 -44 21 -80
14 -63 37 -135 56 -175 15 -33 74 -180 75 -185 0 -3 16 -34 36 -70 20 -36 44
-82 54 -102 14 -32 113 -178 142 -213 5 -5 18 -25 28 -42 11 -18 23 -33 26
-33 4 0 10 -8 13 -17 3 -10 17 -30 31 -45 14 -16 23 -28 19 -28 -11 0 210
-208 263 -247 28 -21 93 -70 145 -109 98 -75 121 -90 258 -162 110 -58 188
-87 335 -123 278 -69 292 -71 520 -75 187 -3 319 8 437 36 115 28 259 70 276
80 15 10 15 10 -3 6 -349 -87 -788 -65 -1155 56 -227 76 -500 227 -695 384
-109 88 -302 280 -381 378 -250 310 -420 676 -485 1043 -28 161 -36 457 -16
608 17 121 15 149 -3 58z"/>
<path d="M815 2743 c4 -10 8 -27 9 -38 1 -16 -5 -20 -29 -18 -29 3 -29 2 -7
-9 25 -13 28 -23 8 -31 -10 -4 -13 -25 -12 -87 3 -105 19 -124 106 -127 34 -1
58 2 55 7 -3 5 8 16 24 25 16 8 37 25 45 37 20 28 31 17 19 -19 -5 -15 -41
-54 -83 -88 -41 -33 -73 -65 -73 -70 3 -23 25 -12 101 50 82 66 100 93 89 138
-13 52 -41 123 -56 141 -21 24 -87 57 -96 48 -3 -4 -3 7 0 23 l7 30 -23 -22
c-21 -21 -23 -21 -35 -5 -12 16 -13 15 -14 -3 -1 -17 -3 -16 -16 8 -16 30 -31
37 -19 10z m166 -83 c26 -15 24 -30 -5 -30 -25 0 -51 22 -39 33 9 10 21 9 44
-3z"/>
<path d="M4521 2724 c0 -11 3 -14 6 -6 3 7 2 16 -1 19 -3 4 -6 -2 -5 -13z"/>
<path d="M628 2653 c7 -3 16 -2 19 1 4 3 -2 6 -13 5 -11 0 -14 -3 -6 -6z"/>
<path d="M587 2574 c-4 -4 -7 -16 -7 -26 0 -13 7 -18 26 -18 21 0 25 4 22 22
-3 23 -27 35 -41 22z"/>
<path d="M4120 2558 c0 -22 3 -23 58 -20 73 4 93 -12 66 -53 -9 -14 -15 -27
-13 -28 2 -2 16 -11 32 -20 33 -21 36 -58 7 -87 -24 -24 -58 -25 -105 -6 -40
17 -47 12 -33 -20 14 -30 83 -43 129 -23 61 25 87 103 50 150 -10 13 -16 30
-14 37 9 26 -8 62 -37 77 -16 8 -54 15 -85 15 -50 0 -55 -2 -55 -22z"/>
<path d="M657 2543 c-25 -6 -11 -23 19 -23 15 0 24 5 22 12 -5 14 -17 17 -41
11z"/>
<path d="M4497 2503 c-4 -3 -7 -14 -7 -24 0 -14 -10 -19 -42 -22 -25 -2 -15
-4 22 -3 63 1 65 2 68 29 3 21 -1 27 -16 27 -10 0 -22 -3 -25 -7z"/>
<path d="M4130 2426 c0 -13 12 -16 56 -16 73 0 70 24 -4 28 -42 2 -52 0 -52
-12z"/>
<path d="M4601 2314 c0 -11 3 -14 6 -6 3 7 2 16 -1 19 -3 4 -6 -2 -5 -13z"/>
<path d="M1144 1825 c-26 -26 -26 -61 0 -77 7 -4 5 -9 -6 -13 -9 -4 -22 -19
-28 -35 -10 -24 -9 -35 6 -67 24 -48 74 -68 137 -53 74 16 102 86 53 135 -15
15 -20 28 -15 37 45 71 -84 135 -147 73z m106 -20 c21 -26 4 -45 -40 -45 -27
0 -43 5 -46 15 -9 22 14 45 46 45 15 0 33 -7 40 -15z m-10 -95 c0 -5 9 -10 20
-10 28 0 42 -31 27 -60 -30 -60 -147 -38 -147 28 0 14 8 31 18 38 20 16 82 19
82 4z"/>
<path d="M1197 1704 c-13 -13 -7 -24 14 -24 11 0 19 5 17 12 -5 14 -22 21 -31
12z"/>
<path d="M3960 1700 l0 -70 -70 0 c-64 0 -86 9 -60 25 13 8 53 86 47 91 -5 6
-80 -82 -94 -111 -20 -38 -6 -45 88 -45 l89 0 0 -39 c0 -25 5 -41 15 -45 12
-4 15 3 15 34 0 30 5 42 22 51 20 11 20 13 5 24 -13 9 -17 28 -17 84 0 64 -2
71 -20 71 -18 0 -20 -7 -20 -70z"/>
<path d="M2390 1670 c0 -5 5 -10 10 -10 6 0 10 -5 10 -11 0 -6 -6 -9 -14 -6
-8 3 -17 -1 -20 -9 -9 -24 -8 -25 15 -12 17 10 23 10 26 1 3 -7 8 -13 13 -13
4 0 0 16 -8 35 -15 33 -32 46 -32 25z"/>
<path d="M2450 1646 c0 -29 4 -36 19 -36 10 0 24 7 32 16 16 20 1 48 -30 52
-18 3 -21 -1 -21 -32z m35 -1 c0 -10 -6 -20 -12 -22 -8 -3 -13 5 -13 22 0 17
5 25 13 23 6 -3 12 -13 12 -23z"/>
<path d="M2520 1651 c0 -16 6 -31 13 -34 19 -7 47 12 47 31 1 13 6 11 25 -10
13 -16 27 -24 30 -18 3 5 -3 15 -15 22 -23 15 -27 30 -6 22 8 -3 16 -1 19 3 7
11 -33 11 -50 0 -6 -4 -14 -3 -18 3 -3 5 -15 10 -26 10 -14 0 -19 -7 -19 -29z
m45 -1 c0 -8 -8 -16 -17 -18 -13 -2 -18 3 -18 18 0 15 5 20 18 18 9 -2 17 -10
17 -18z"/>
<path d="M2655 1659 c-10 -29 18 -57 39 -40 11 9 15 9 19 -1 4 -8 6 -7 6 5 1
20 12 22 29 5 9 -9 12 -7 12 13 l0 24 20 -25 20 -25 -1 35 c-1 19 -3 27 -6 17
-5 -18 -6 -18 -24 -1 -18 16 -19 16 -19 -7 l0 -24 -20 25 c-19 24 -20 24 -20
4 0 -30 -28 -53 -41 -33 -12 19 -5 34 14 33 9 -1 14 2 11 7 -10 16 -33 9 -39
-12z"/>
<path d="M968 1614 c-23 -12 -40 -44 -23 -44 17 0 75 36 75 47 0 17 -18 16
-52 -3z"/>
<path d="M4210 1612 c0 -9 44 -32 58 -32 9 1 -41 39 -50 40 -5 0 -8 -4 -8 -8z"/>
<path d="M4130 1491 c0 -16 51 -44 62 -33 7 7 0 15 -20 26 -36 18 -42 19 -42
7z"/>
<path d="M1012 1428 c3 -7 13 -15 22 -16 12 -3 17 1 14 10 -3 7 -13 15 -22 16
-12 3 -17 -1 -14 -10z"/>
<path d="M2300 1266 c0 -3 11 -17 24 -31 14 -15 29 -39 34 -54 9 -26 8 -27
-19 -23 -35 5 -99 -6 -99 -17 0 -5 21 -7 48 -5 26 2 41 1 33 -2 -16 -7 -54
-39 -84 -69 -26 -27 -47 -78 -47 -115 0 -17 -4 -29 -9 -26 -20 13 -28 -84 -10
-131 55 -148 206 -185 356 -87 99 65 143 138 143 238 0 82 -62 168 -143 197
-25 9 -33 17 -29 27 4 11 1 14 -11 9 -9 -3 -17 -2 -17 3 0 16 44 40 75 41 29
0 29 1 6 10 -34 13 -82 -5 -103 -39 l-17 -27 -1 45 c-1 42 -2 44 -15 26 -8
-11 -15 -29 -15 -40 -1 -21 -1 -21 -15 -1 -35 48 -85 89 -85 71z m278 -172
c28 -19 52 -65 52 -98 0 -37 -16 -40 -30 -6 -12 30 -66 84 -91 92 -19 6 -1 28
24 28 13 0 33 -7 45 -16z m-14 -83 c16 -18 16 -20 -5 -40 -28 -26 -72 -35 -98
-21 -33 17 -24 39 24 64 39 21 58 20 79 -3z"/>
<path d="M1730 1230 c0 -18 7 -20 55 -20 30 0 55 -2 55 -5 0 -2 -30 -49 -66
-105 -62 -94 -70 -120 -40 -120 16 0 168 249 160 261 -3 5 -41 9 -85 9 -72 0
-79 -2 -79 -20z"/>
<path d="M3155 1193 c-3 -27 -8 -65 -10 -85 -6 -43 -6 -43 41 -23 26 11 42 12
62 4 48 -18 54 -48 18 -84 -20 -20 -31 -24 -58 -18 -18 3 -38 10 -45 15 -13
10 -33 3 -33 -12 0 -15 56 -40 90 -40 100 0 146 112 66 161 -17 10 -48 19 -70
19 -35 0 -38 2 -32 23 3 12 6 28 6 35 0 8 22 12 75 12 68 0 75 2 75 20 0 19
-7 20 -89 20 l-90 0 -6 -47z"/>
<path d="M1610 905 c-7 -8 -9 -22 -6 -31 6 -15 8 -15 26 1 11 10 20 24 20 32
0 18 -25 17 -40 -2z"/>
<path d="M3505 910 c-8 -13 24 -60 41 -60 23 0 24 17 3 44 -22 28 -34 32 -44
16z"/>
<path d="M3440 880 c0 -5 5 -10 11 -10 5 0 7 5 4 10 -3 6 -8 10 -11 10 -2 0
-4 -4 -4 -10z"/>
<path d="M1725 870 c-3 -5 1 -10 9 -10 9 0 16 5 16 10 0 6 -4 10 -9 10 -6 0
-13 -4 -16 -10z"/>
<path d="M2560 610 c0 -22 3 -40 8 -40 4 0 6 18 4 40 -2 22 -6 40 -8 40 -2 0
-4 -18 -4 -40z"/>
</g>
</svg>